<svg width="703" height="102" viewBox="0 0 703 102" version="1.1" xmlns="http://www.w3.org/2000/svg" xmlns:xlink="http://www.w3.org/1999/xlink" xmlns:figma="http://www.figma.com/figma/ns">
<title>logo</title>
<desc>Created using Figma</desc>
<g id="Canvas" transform="translate(-1945 277)" figma:type="canvas">
<g id="logo" style="mix-blend-mode:normal;" figma:type="vector">
<use xlink:href="#path0_fill" transform="translate(1945 -276.933)" fill="#363636" style="mix-blend-mode:normal;"/>
<use xlink:href="#path1_fill" transform="translate(1945 -276.933)" fill="#363636" style="mix-blend-mode:normal;"/>
<use xlink:href="#path2_fill" transform="translate(1945 -276.933)" fill="#363636" style="mix-blend-mode:normal;"/>
<use xlink:href="#path3_fill" transform="translate(1945 -276.933)" fill="#363636" style="mix-blend-mode:normal;"/>
<use xlink:href="#path4_fill" transform="translate(1945 -276.933)" fill="#363636" style="mix-blend-mode:normal;"/>
<use xlink:href="#path5_fill" transform="translate(1945 -276.933)" fill="#363636" style="mix-blend-mode:normal;"/>
<use xlink:href="#path6_fill" transform="translate(1945 -276.933)" fill="#363636" style="mix-blend-mode:normal;"/>
<use xlink:href="#path7_fill" transform="translate(1945 -276.933)" fill="#363636" style="mix-blend-mode:normal;"/>
<use xlink:href="#path8_fill" transform="translate(1945 -276.933)" fill="#363636" style="mix-blend-mode:normal;"/>
<use xlink:href="#path9_fill" transform="translate(1945 -276.933)" fill="#363636" style="mix-blend-mode:normal;"/>
<use xlink:href="#path10_fill" transform="translate(1945 -276.933)" fill="#363636" style="mix-blend-mode:normal;"/>
<use xlink:href="#path11_fill" transform="translate(1945 -276.933)" fill="#363636" style="mix-blend-mode:normal;"/>
<use xlink:href="#path12_fill" transform="translate(1945 -276.933)" fill="#363636" style="mix-blend-mode:normal;"/>
<use xlink:href="#path13_fill" transform="translate(1945 -276.933)" fill="#363636" style="mix-blend-mode:normal;"/>
</g>
</g>
<defs>
<path id="path0_fill" fill-rule="evenodd" d="M 15.7689 14.188C 12.2521 16.767 10 20.4783 10 25.6239L 10 41.8728L 49.9974 41.8728L 49.9974 25.6239C 49.9974 20.4783 47.7453 16.767 44.2285 14.188C 40.5661 11.5022 35.413 10 29.9987 10C 24.5844 10 19.4313 11.5022 15.7689 14.188ZM 49.9974 51.8728L 49.9974 85.6208L 59.9974 85.6208L 59.9974 46.8728L 59.9974 25.6239C 59.9974 17.0203 55.9998 10.4196 50.1421 6.12396C 44.43 1.93508 37.0838 0 29.9987 0C 22.9136 0 15.5674 1.93508 9.85528 6.12396C 3.99762 10.4196 0 17.0203 0 25.6239L 0 46.8728L 0 85.6208L 10 85.6208L 10 51.8728L 49.9974 51.8728Z"/>
<path id="path1_fill" fill-rule="evenodd" d="M 114.369 85.6208L 114.369 0.625229L 105.62 0.625229L 105.62 44.6568C 101.818 41.5344 96.7933 39.5482 90.6205 39.5482C 75.6248 39.5482 67.4057 51.2702 67.0305 62.5262C 66.8422 68.1754 68.5776 74.0147 72.6039 78.4885C 76.6952 83.0344 82.8159 85.7958 90.6205 85.7958C 96.6945 85.7958 101.749 84.1232 105.62 81.2388L 105.62 85.6208L 114.369 85.6208ZM 90.6205 77.0463C 84.9884 77.0463 81.344 75.1205 79.1075 72.6354C 76.8061 70.0783 75.6509 66.5432 75.7751 62.8177C 76.0249 55.3248 81.2425 48.2978 90.6205 48.2978C 99.9986 48.2978 105.216 55.3248 105.466 62.8177C 105.59 66.5432 104.435 70.0783 102.134 72.6354C 99.8971 75.1205 96.2527 77.0463 90.6205 77.0463Z"/>
<path id="path2_fill" fill-rule="evenodd" d="M 168.111 65.6405C 168.227 64.2099 168.22 62.6005 168.092 61.1872C 167.078 50.4204 158.899 39.7232 144.598 39.7232C 129.602 39.7232 121.383 51.4452 121.008 62.7012C 120.819 68.3503 122.555 74.1898 126.581 78.6635C 130.673 83.2093 136.793 85.9708 144.598 85.9708C 150.532 85.9708 155.507 84.3756 159.361 81.5865L 159.361 85.5958L 168.111 85.5958L 168.111 65.6405ZM 133.085 72.8104C 135.321 75.2954 138.966 77.2212 144.598 77.2212C 149.722 77.2212 153.186 75.6247 155.434 73.5038C 157.956 71.2461 159.048 68.6961 159.361 65.2682L 159.361 61.8142C 158.618 54.7783 153.505 48.4727 144.598 48.4727C 135.22 48.4727 130.002 55.4998 129.752 62.9927C 129.628 66.7182 130.783 70.2533 133.085 72.8104Z"/>
<path id="path3_fill" fill-rule="evenodd" d="M 194.74 50.6229C 190.481 50.6229 185.991 53.528 185.991 60.6221L 185.991 85.6208L 175.991 85.6208L 175.991 60.6221C 175.991 47.7173 185.25 40.6229 194.74 40.6229C 199.864 40.6229 204.921 42.6912 208.489 46.6258C 212.058 42.6912 217.115 40.6229 222.239 40.6229C 231.729 40.6229 240.988 47.7173 240.988 60.6221L 240.988 85.6208L 230.988 85.6208L 230.988 60.6221C 230.988 53.528 226.498 50.6229 222.239 50.6229C 217.979 50.6229 213.489 53.528 213.489 60.6221L 213.489 85.6208L 203.489 85.6208L 203.489 60.6221C 203.489 53.528 198.999 50.6229 194.74 50.6229Z"/>
<path id="path4_fill" fill-rule="evenodd" d="M 279.985 0.624954L 284.985 0.624954L 299.985 0.624957C 323.83 0.624957 336.787 22.83 337.789 42.8733C 338.302 53.1375 335.849 63.7548 329.626 71.9311C 323.277 80.2729 313.332 85.6211 299.985 85.6211L 299.983 85.6211L 299.978 85.6211L 299.96 85.6211L 299.887 85.6211L 299.606 85.6211L 298.552 85.6211L 294.915 85.6211L 284.985 85.6211L 279.985 85.6211L 279.985 80.6211L 279.985 5.62495L 279.985 0.624954ZM 289.985 10.625L 289.985 75.6211L 294.915 75.6211L 298.552 75.6211L 299.606 75.6211L 299.887 75.6211L 299.96 75.6211L 299.978 75.6211L 299.983 75.6211L 299.984 75.6211C 310.385 75.6211 317.315 71.5947 321.669 65.8747C 326.148 59.9893 328.226 51.8576 327.802 43.3727C 326.929 25.9179 316.137 10.625 299.985 10.625L 289.985 10.625Z"/>
<path id="path5_fill" fill-rule="evenodd" d="M 390.08 61.1873C 390.208 62.6006 390.216 64.21 390.099 65.6406L 390.099 85.5959L 387.45 85.5959C 387.293 86.4238 387.34 87.1132 387.469 87.6565C 387.884 89.3989 389.555 91.4212 392.992 92.8076C 393.854 93.1551 394.787 93.4433 395.774 93.6636L 392.765 101.933C 391.709 101.652 390.692 101.314 389.72 100.922C 384.696 98.8961 380.251 95.1214 378.957 89.6817C 378.432 87.4737 378.481 85.2405 379.054 83.0324C 375.588 84.9198 371.404 85.9708 366.586 85.9708C 358.782 85.9708 352.661 83.2094 348.57 78.6636C 344.543 74.1898 342.808 68.3504 342.996 62.7013C 343.371 51.4453 351.591 39.7232 366.586 39.7232C 380.887 39.7232 389.067 50.4205 390.08 61.1873ZM 366.586 77.2213C 360.954 77.2213 357.31 75.2955 355.073 72.8104C 352.772 70.2533 351.617 66.7182 351.741 62.9928C 351.991 55.4999 357.208 48.4728 366.586 48.4728C 375.494 48.4728 380.607 54.7784 381.35 61.8143L 381.35 65.2682C 381.037 68.6961 379.944 71.2462 377.422 73.5038C 375.174 75.6247 371.711 77.2213 366.586 77.2213ZM 381.144 81.7335L 381.35 81.8083L 381.35 81.5865C 381.281 81.6359 381.213 81.6849 381.144 81.7335Z"/>
<path id="path6_fill" fill-rule="evenodd" d="M 398.224 85.6208L 398.224 0.625229L 406.974 0.625229L 406.974 44.6568C 410.776 41.5344 415.8 39.5482 421.973 39.5482C 436.969 39.5482 445.188 51.2702 445.563 62.5262C 445.752 68.1754 444.016 74.0147 439.99 78.4885C 435.899 83.0344 429.778 85.7958 421.973 85.7958C 415.899 85.7958 410.845 84.1233 406.974 81.2388L 406.974 85.6208L 398.224 85.6208ZM 421.973 77.0463C 427.605 77.0463 431.25 75.1205 433.486 72.6354C 435.788 70.0783 436.943 66.5432 436.819 62.8177C 436.569 55.3248 431.351 48.2978 421.973 48.2978C 412.595 48.2978 407.378 55.3248 407.128 62.8177C 407.004 66.5432 408.159 70.0783 410.46 72.6354C 412.697 75.1205 416.341 77.0463 421.973 77.0463Z"/>
<path id="path7_fill" d="M 454.398 85.6067L 454.475 40.6231L 463.224 40.6381L 463.216 45.6246C 467.02 42.5968 472.029 40.681 478.147 40.681C 478.99 40.681 479.812 40.7174 480.613 40.7882L 480.613 49.5948C 479.827 49.487 479.005 49.4306 478.147 49.4306C 468.664 49.4306 463.545 56.3178 463.301 63.4422C 463.298 63.5383 463.295 63.6343 463.294 63.7301L 463.185 63.7301L 463.147 85.6216L 454.398 85.6067Z"/>
<path id="path8_fill" fill-rule="evenodd" d="M 518.757 73.5352C 516.52 76.0202 512.876 77.946 507.244 77.946C 501.612 77.946 497.967 76.0202 495.731 73.5352C 493.429 70.9781 492.274 67.4431 492.399 63.7177C 492.648 56.2248 497.866 49.1979 507.244 49.1979C 516.622 49.1979 521.839 56.2248 522.089 63.7177C 522.213 67.4431 521.058 70.9781 518.757 73.5352ZM 530.834 63.4262C 530.459 52.17 522.24 40.4479 507.244 40.4479C 492.248 40.4479 484.029 52.17 483.653 63.4262C 483.465 69.0753 485.201 74.9148 489.227 79.3886C 493.318 83.9345 499.439 86.696 507.244 86.696C 515.048 86.696 521.169 83.9345 525.26 79.3886C 529.287 74.9148 531.022 69.0753 530.834 63.4262Z"/>
<path id="path9_fill" fill-rule="evenodd" d="M 583.37 77.121C 587.629 77.121 592.119 74.2159 592.119 67.1218L 592.119 42.1231L 602.119 42.1231L 602.119 67.1218C 602.119 80.0266 592.86 87.121 583.37 87.121C 578.246 87.121 573.189 85.0526 569.621 81.1181C 566.052 85.0526 560.995 87.121 555.871 87.121C 546.381 87.121 537.122 80.0266 537.122 67.1218L 537.122 42.1231L 547.122 42.1231L 547.122 67.1218C 547.122 74.2159 551.612 77.121 555.871 77.121C 560.131 77.121 564.621 74.2159 564.621 67.1218L 564.621 42.1231L 574.621 42.1231L 574.621 67.1218C 574.621 74.2159 579.111 77.121 583.37 77.121Z"/>
<path id="path10_fill" d="M 652.729 65.178L 652.729 85.6208L 661.478 85.6208L 661.478 69.3681C 661.561 69.3696 661.644 69.3716 661.727 69.374C 670.454 69.6303 677.652 74.9039 677.715 83.1673L 677.765 83.1209L 677.765 85.6208L 686.353 85.6208C 686.427 84.8606 686.465 84.0788 686.465 83.2754C 686.465 71.2456 677.928 64.0663 668.589 61.5934L 684.729 45.5216L 678.555 39.3217L 661.478 56.3264L 661.478 0.625229L 652.729 0.625229L 652.729 65.0391L 652.659 65.1083L 652.729 65.178Z"/>
<path id="path11_fill" d="M 645.411 50.9754L 635.891 54.4405C 635.856 53.3581 635.366 52.4852 634.124 51.6807C 632.689 50.7516 630.455 50.1229 627.93 50.1229C 625.405 50.1229 623.171 50.7516 621.737 51.6807C 620.447 52.5162 619.968 53.4256 619.968 54.5668C 619.968 55.6839 620.292 56.3138 621.651 57.1133C 623.395 58.139 626.005 58.8559 629.615 59.7065C 631.203 60.0809 632.916 60.4861 634.589 60.9668L 634.661 61.166C 634.681 61.1728 634.701 61.1797 634.721 61.1865L 634.997 61.086C 636.505 61.5327 637.969 62.0443 639.268 62.6538C 642.333 64.1306 645.967 66.9917 645.967 72.1957L 645.822 72.1957C 645.917 72.8247 645.967 73.4847 645.967 74.177C 645.967 79.3978 643.091 83.208 639.466 85.4907C 635.98 87.6864 631.662 88.6209 627.638 88.6209C 623.615 88.6209 619.296 87.6864 615.81 85.4908C 613.318 83.9211 611.179 81.6291 610.086 78.653L 619.489 75.2307C 619.73 75.8724 620.237 76.4608 621.139 77.0291C 622.651 77.9815 624.997 78.6209 627.638 78.6209C 630.279 78.6209 632.625 77.9815 634.137 77.0291C 635.511 76.1639 635.967 75.2522 635.967 74.177C 635.967 73.3028 635.731 72.6273 634.049 71.7053C 632.039 70.5556 629.269 69.9038 625.987 69.1315L 625.587 69.0374L 625.59 69.0249C 622.632 68.2955 619.305 67.3352 616.581 65.7324C 612.925 63.5816 609.968 60.0258 609.968 54.5668C 609.968 49.4121 612.73 45.5995 616.301 43.2871C 619.727 41.0682 623.974 40.1229 627.93 40.1229C 631.887 40.1229 636.134 41.0682 639.56 43.2871C 642.243 45.025 644.47 47.6101 645.411 50.9754Z"/>
<path id="path12_fill" d="M 692.464 40.6229L 692.387 85.6065L 701.137 85.6214L 701.214 40.6379L 692.464 40.6229Z"/>
<path id="path13_fill" d="M 702.301 29.1252C 702.301 32.1628 699.838 34.6252 696.801 34.6252C 693.763 34.6252 691.301 32.1628 691.301 29.1252C 691.301 26.0877 693.763 23.6252 696.801 23.6252C 699.838 23.6252 702.301 26.0877 702.301 29.1252Z"/>
</defs>
</svg>
