<?xml version="1.0" standalone="no"?>
<!DOCTYPE svg PUBLIC "-//W3C//DTD SVG 20010904//EN"
 "http://www.w3.org/TR/2001/REC-SVG-20010904/DTD/svg10.dtd">
<svg version="1.0" xmlns="http://www.w3.org/2000/svg"
 width="700.000000pt" height="700.000000pt" viewBox="0 0 700.000000 700.000000"
 preserveAspectRatio="xMidYMid meet">
<metadata>
Created by potrace 1.11, written by Peter Selinger 2001-2013
</metadata>
<g transform="translate(0.000000,700.000000) scale(0.100000,-0.100000)"
fill="#000000" stroke="none">
<path d="M2155 6765 c-443 -51 -851 -213 -1135 -450 -265 -222 -442 -496 -526
-815 -56 -211 -54 -108 -54 -2703 l0 -2397 2438 3 c2253 3 2443 4 2522 20 459
93 811 326 1068 708 60 90 146 259 195 384 208 529 208 1183 0 1710 -238 603
-671 978 -1263 1091 -68 13 -177 17 -557 21 l-472 5 -4 486 c-3 455 -5 493
-25 584 -115 511 -433 904 -922 1137 -394 188 -844 264 -1265 216z m620 -234
c461 -79 831 -283 1084 -596 134 -165 226 -364 272 -592 21 -102 23 -139 27
-665 l4 -558 513 0 c560 0 663 -7 831 -56 243 -70 432 -188 621 -388 268 -283
428 -678 465 -1150 28 -367 -47 -772 -201 -1078 -91 -182 -161 -280 -300 -419
-211 -210 -402 -316 -689 -381 -95 -21 -113 -22 -964 -25 l-868 -4 0 1461 0
1460 -1165 0 -1165 0 0 -1460 0 -1460 -290 0 -290 0 0 2289 c0 1569 3 2314 11
2366 83 602 537 1058 1219 1224 63 16 156 34 205 40 50 6 101 13 115 15 14 3
120 3 235 1 154 -2 242 -9 330 -24z"/>
<path d="M2227 5970 c-298 -38 -550 -141 -729 -299 -100 -89 -191 -239 -231
-380 -20 -73 -21 -100 -25 -623 l-3 -548 1165 0 1166 0 0 524 c0 555 -2 587
-50 722 -34 97 -98 194 -190 284 -156 155 -370 255 -647 305 -104 19 -360 27
-456 15z"/>
<path d="M4160 2370 l0 -1172 538 4 c612 5 612 5 788 93 347 174 555 648 523
1187 -21 340 -141 634 -339 828 -81 80 -151 127 -250 167 -135 54 -155 56
-727 60 l-533 5 0 -1172z"/>
</g>
</svg>
